<mxfile host="app.diagrams.net" agent="Mozilla/5.0 (Windows NT 10.0; Win64; x64) AppleWebKit/537.36 (KHTML, like Gecko) Chrome/131.0.0.0 Safari/537.36 Edg/131.0.0.0" version="26.0.5">
  <diagram id="C5RBs43oDa-KdzZeNtuy" name="Page-1">
    <mxGraphModel dx="4901" dy="3400" grid="1" gridSize="12" guides="1" tooltips="1" connect="1" arrows="1" fold="1" page="1" pageScale="1" pageWidth="827" pageHeight="1169" math="0" shadow="0">
      <root>
        <mxCell id="WIyWlLk6GJQsqaUBKTNV-0" />
        <mxCell id="WIyWlLk6GJQsqaUBKTNV-1" parent="WIyWlLk6GJQsqaUBKTNV-0" />
        <mxCell id="zOLsyDTEvLsgvf4bsysQ-21" style="edgeStyle=orthogonalEdgeStyle;rounded=0;orthogonalLoop=1;jettySize=auto;html=1;" edge="1" parent="WIyWlLk6GJQsqaUBKTNV-1" source="WIyWlLk6GJQsqaUBKTNV-3">
          <mxGeometry relative="1" as="geometry">
            <mxPoint x="-298" y="-136" as="targetPoint" />
          </mxGeometry>
        </mxCell>
        <mxCell id="zOLsyDTEvLsgvf4bsysQ-38" value="" style="edgeStyle=orthogonalEdgeStyle;rounded=0;orthogonalLoop=1;jettySize=auto;html=1;" edge="1" parent="WIyWlLk6GJQsqaUBKTNV-1" source="WIyWlLk6GJQsqaUBKTNV-3" target="zOLsyDTEvLsgvf4bsysQ-37">
          <mxGeometry relative="1" as="geometry" />
        </mxCell>
        <mxCell id="zOLsyDTEvLsgvf4bsysQ-137" value="" style="edgeStyle=orthogonalEdgeStyle;rounded=0;orthogonalLoop=1;jettySize=auto;html=1;" edge="1" parent="WIyWlLk6GJQsqaUBKTNV-1" source="WIyWlLk6GJQsqaUBKTNV-3" target="zOLsyDTEvLsgvf4bsysQ-136">
          <mxGeometry relative="1" as="geometry" />
        </mxCell>
        <mxCell id="WIyWlLk6GJQsqaUBKTNV-3" value="Message General" style="rounded=1;whiteSpace=wrap;html=1;fontSize=12;glass=0;strokeWidth=1;shadow=0;container=0;arcSize=0;" parent="WIyWlLk6GJQsqaUBKTNV-1" vertex="1">
          <mxGeometry x="-358" y="-264" width="120" height="40" as="geometry" />
        </mxCell>
        <mxCell id="zOLsyDTEvLsgvf4bsysQ-40" value="" style="edgeStyle=orthogonalEdgeStyle;rounded=0;orthogonalLoop=1;jettySize=auto;html=1;" edge="1" parent="WIyWlLk6GJQsqaUBKTNV-1" source="zOLsyDTEvLsgvf4bsysQ-37" target="zOLsyDTEvLsgvf4bsysQ-39">
          <mxGeometry relative="1" as="geometry" />
        </mxCell>
        <mxCell id="zOLsyDTEvLsgvf4bsysQ-46" value="" style="edgeStyle=orthogonalEdgeStyle;rounded=0;orthogonalLoop=1;jettySize=auto;html=1;" edge="1" parent="WIyWlLk6GJQsqaUBKTNV-1" source="zOLsyDTEvLsgvf4bsysQ-37" target="zOLsyDTEvLsgvf4bsysQ-45">
          <mxGeometry relative="1" as="geometry" />
        </mxCell>
        <mxCell id="zOLsyDTEvLsgvf4bsysQ-47" value="" style="edgeStyle=orthogonalEdgeStyle;rounded=0;orthogonalLoop=1;jettySize=auto;html=1;" edge="1" parent="WIyWlLk6GJQsqaUBKTNV-1" source="zOLsyDTEvLsgvf4bsysQ-37" target="zOLsyDTEvLsgvf4bsysQ-45">
          <mxGeometry relative="1" as="geometry" />
        </mxCell>
        <mxCell id="zOLsyDTEvLsgvf4bsysQ-37" value="System" style="rounded=1;whiteSpace=wrap;html=1;fontSize=12;glass=0;strokeWidth=1;shadow=0;container=0;arcSize=0;" vertex="1" parent="WIyWlLk6GJQsqaUBKTNV-1">
          <mxGeometry x="-358" y="-144" width="120" height="40" as="geometry" />
        </mxCell>
        <mxCell id="zOLsyDTEvLsgvf4bsysQ-49" value="" style="edgeStyle=orthogonalEdgeStyle;rounded=0;orthogonalLoop=1;jettySize=auto;html=1;" edge="1" parent="WIyWlLk6GJQsqaUBKTNV-1" source="zOLsyDTEvLsgvf4bsysQ-39" target="zOLsyDTEvLsgvf4bsysQ-48">
          <mxGeometry relative="1" as="geometry" />
        </mxCell>
        <mxCell id="zOLsyDTEvLsgvf4bsysQ-39" value="Book a service" style="rounded=1;whiteSpace=wrap;html=1;fontSize=12;glass=0;strokeWidth=1;shadow=0;container=0;arcSize=0;" vertex="1" parent="WIyWlLk6GJQsqaUBKTNV-1">
          <mxGeometry x="-558" y="-144" width="120" height="36" as="geometry" />
        </mxCell>
        <mxCell id="zOLsyDTEvLsgvf4bsysQ-76" value="" style="edgeStyle=orthogonalEdgeStyle;rounded=0;orthogonalLoop=1;jettySize=auto;html=1;" edge="1" parent="WIyWlLk6GJQsqaUBKTNV-1" source="zOLsyDTEvLsgvf4bsysQ-45" target="zOLsyDTEvLsgvf4bsysQ-75">
          <mxGeometry relative="1" as="geometry" />
        </mxCell>
        <mxCell id="zOLsyDTEvLsgvf4bsysQ-45" value="Ask for help" style="whiteSpace=wrap;html=1;rounded=1;glass=0;strokeWidth=1;shadow=0;arcSize=0;" vertex="1" parent="WIyWlLk6GJQsqaUBKTNV-1">
          <mxGeometry x="-132" y="-144" width="120" height="34" as="geometry" />
        </mxCell>
        <mxCell id="zOLsyDTEvLsgvf4bsysQ-51" value="" style="edgeStyle=orthogonalEdgeStyle;rounded=0;orthogonalLoop=1;jettySize=auto;html=1;" edge="1" parent="WIyWlLk6GJQsqaUBKTNV-1">
          <mxGeometry relative="1" as="geometry">
            <mxPoint x="-458" y="-7" as="sourcePoint" />
            <mxPoint x="-380" y="-10" as="targetPoint" />
          </mxGeometry>
        </mxCell>
        <mxCell id="zOLsyDTEvLsgvf4bsysQ-53" value="" style="edgeStyle=orthogonalEdgeStyle;rounded=0;orthogonalLoop=1;jettySize=auto;html=1;" edge="1" parent="WIyWlLk6GJQsqaUBKTNV-1">
          <mxGeometry relative="1" as="geometry">
            <mxPoint x="-540" y="-7" as="sourcePoint" />
            <mxPoint x="-620" y="-10" as="targetPoint" />
          </mxGeometry>
        </mxCell>
        <mxCell id="zOLsyDTEvLsgvf4bsysQ-63" style="edgeStyle=orthogonalEdgeStyle;rounded=0;orthogonalLoop=1;jettySize=auto;html=1;" edge="1" parent="WIyWlLk6GJQsqaUBKTNV-1" target="zOLsyDTEvLsgvf4bsysQ-56">
          <mxGeometry relative="1" as="geometry">
            <mxPoint x="-499" y="36.00000000000023" as="sourcePoint" />
          </mxGeometry>
        </mxCell>
        <mxCell id="zOLsyDTEvLsgvf4bsysQ-48" value="&lt;font style=&quot;font-size: 7px;&quot;&gt;If has one service approve&lt;/font&gt;" style="rhombus;whiteSpace=wrap;html=1;rounded=1;glass=0;strokeWidth=1;shadow=0;arcSize=0;movable=1;resizable=1;rotatable=1;deletable=1;editable=1;locked=0;connectable=1;" vertex="1" parent="WIyWlLk6GJQsqaUBKTNV-1">
          <mxGeometry x="-539" y="-50" width="82" height="86" as="geometry" />
        </mxCell>
        <mxCell id="zOLsyDTEvLsgvf4bsysQ-55" value="" style="edgeStyle=orthogonalEdgeStyle;rounded=0;orthogonalLoop=1;jettySize=auto;html=1;" edge="1" parent="WIyWlLk6GJQsqaUBKTNV-1" source="zOLsyDTEvLsgvf4bsysQ-56">
          <mxGeometry relative="1" as="geometry">
            <mxPoint x="-360" y="138" as="targetPoint" />
          </mxGeometry>
        </mxCell>
        <mxCell id="zOLsyDTEvLsgvf4bsysQ-70" value="" style="edgeStyle=orthogonalEdgeStyle;rounded=0;orthogonalLoop=1;jettySize=auto;html=1;" edge="1" parent="WIyWlLk6GJQsqaUBKTNV-1" target="zOLsyDTEvLsgvf4bsysQ-69">
          <mxGeometry relative="1" as="geometry">
            <mxPoint x="-340" y="30" as="sourcePoint" />
          </mxGeometry>
        </mxCell>
        <mxCell id="zOLsyDTEvLsgvf4bsysQ-50" value="Yes" style="rhombus;whiteSpace=wrap;html=1;rounded=1;glass=0;strokeWidth=1;shadow=0;arcSize=0;" vertex="1" parent="WIyWlLk6GJQsqaUBKTNV-1">
          <mxGeometry x="-379" y="-50" width="80" height="80" as="geometry" />
        </mxCell>
        <mxCell id="zOLsyDTEvLsgvf4bsysQ-68" style="edgeStyle=orthogonalEdgeStyle;rounded=0;orthogonalLoop=1;jettySize=auto;html=1;" edge="1" parent="WIyWlLk6GJQsqaUBKTNV-1">
          <mxGeometry relative="1" as="geometry">
            <mxPoint x="-660" y="30" as="sourcePoint" />
            <mxPoint x="-680" y="120" as="targetPoint" />
          </mxGeometry>
        </mxCell>
        <mxCell id="zOLsyDTEvLsgvf4bsysQ-52" value="No" style="rhombus;whiteSpace=wrap;html=1;rounded=1;glass=0;strokeWidth=1;shadow=0;arcSize=0;" vertex="1" parent="WIyWlLk6GJQsqaUBKTNV-1">
          <mxGeometry x="-699" y="-50" width="80" height="80" as="geometry" />
        </mxCell>
        <mxCell id="zOLsyDTEvLsgvf4bsysQ-65" value="" style="edgeStyle=orthogonalEdgeStyle;rounded=0;orthogonalLoop=1;jettySize=auto;html=1;" edge="1" parent="WIyWlLk6GJQsqaUBKTNV-1" source="zOLsyDTEvLsgvf4bsysQ-69" target="zOLsyDTEvLsgvf4bsysQ-64">
          <mxGeometry relative="1" as="geometry">
            <mxPoint x="-300" y="168" as="sourcePoint" />
          </mxGeometry>
        </mxCell>
        <mxCell id="zOLsyDTEvLsgvf4bsysQ-59" value="" style="edgeStyle=orthogonalEdgeStyle;rounded=0;orthogonalLoop=1;jettySize=auto;html=1;" edge="1" parent="WIyWlLk6GJQsqaUBKTNV-1" source="zOLsyDTEvLsgvf4bsysQ-56">
          <mxGeometry relative="1" as="geometry">
            <mxPoint x="-630" y="150" as="targetPoint" />
          </mxGeometry>
        </mxCell>
        <mxCell id="zOLsyDTEvLsgvf4bsysQ-56" value="Checking" style="whiteSpace=wrap;html=1;rounded=1;glass=0;strokeWidth=1;shadow=0;arcSize=0;" vertex="1" parent="WIyWlLk6GJQsqaUBKTNV-1">
          <mxGeometry x="-559" y="84" width="120" height="60" as="geometry" />
        </mxCell>
        <mxCell id="zOLsyDTEvLsgvf4bsysQ-58" value="&lt;font style=&quot;font-size: 10px;&quot;&gt;Service not found&lt;/font&gt;" style="shape=trapezoid;perimeter=trapezoidPerimeter;whiteSpace=wrap;html=1;fixedSize=1;rounded=1;glass=0;strokeWidth=1;shadow=0;arcSize=0;" vertex="1" parent="WIyWlLk6GJQsqaUBKTNV-1">
          <mxGeometry x="-739" y="120" width="120" height="60" as="geometry" />
        </mxCell>
        <mxCell id="zOLsyDTEvLsgvf4bsysQ-64" value="Book&amp;nbsp;" style="whiteSpace=wrap;html=1;rounded=1;glass=0;strokeWidth=1;shadow=0;arcSize=0;" vertex="1" parent="WIyWlLk6GJQsqaUBKTNV-1">
          <mxGeometry x="-346" y="216" width="106" height="36" as="geometry" />
        </mxCell>
        <mxCell id="zOLsyDTEvLsgvf4bsysQ-69" value="&lt;font style=&quot;font-size: 9px;&quot;&gt;Display service&lt;/font&gt;&lt;div&gt;&lt;font style=&quot;font-size: 9px;&quot;&gt;&amp;nbsp;own by mentor&lt;/font&gt;&lt;/div&gt;" style="shape=trapezoid;perimeter=trapezoidPerimeter;whiteSpace=wrap;html=1;fixedSize=1;rounded=1;glass=0;strokeWidth=1;shadow=0;arcSize=0;" vertex="1" parent="WIyWlLk6GJQsqaUBKTNV-1">
          <mxGeometry x="-375" y="84" width="135" height="72" as="geometry" />
        </mxCell>
        <mxCell id="zOLsyDTEvLsgvf4bsysQ-82" value="" style="edgeStyle=orthogonalEdgeStyle;rounded=0;orthogonalLoop=1;jettySize=auto;html=1;" edge="1" parent="WIyWlLk6GJQsqaUBKTNV-1" source="zOLsyDTEvLsgvf4bsysQ-75" target="zOLsyDTEvLsgvf4bsysQ-81">
          <mxGeometry relative="1" as="geometry" />
        </mxCell>
        <mxCell id="zOLsyDTEvLsgvf4bsysQ-84" value="" style="edgeStyle=orthogonalEdgeStyle;rounded=0;orthogonalLoop=1;jettySize=auto;html=1;" edge="1" parent="WIyWlLk6GJQsqaUBKTNV-1" source="zOLsyDTEvLsgvf4bsysQ-75" target="zOLsyDTEvLsgvf4bsysQ-83">
          <mxGeometry relative="1" as="geometry" />
        </mxCell>
        <mxCell id="zOLsyDTEvLsgvf4bsysQ-75" value="if has a service" style="rhombus;whiteSpace=wrap;html=1;rounded=1;glass=0;strokeWidth=1;shadow=0;arcSize=0;" vertex="1" parent="WIyWlLk6GJQsqaUBKTNV-1">
          <mxGeometry x="-112" y="-53" width="80" height="80" as="geometry" />
        </mxCell>
        <mxCell id="zOLsyDTEvLsgvf4bsysQ-89" value="" style="edgeStyle=orthogonalEdgeStyle;rounded=0;orthogonalLoop=1;jettySize=auto;html=1;" edge="1" parent="WIyWlLk6GJQsqaUBKTNV-1" source="zOLsyDTEvLsgvf4bsysQ-81" target="zOLsyDTEvLsgvf4bsysQ-88">
          <mxGeometry relative="1" as="geometry">
            <Array as="points">
              <mxPoint x="20" y="144" />
              <mxPoint x="20" y="150" />
            </Array>
          </mxGeometry>
        </mxCell>
        <mxCell id="zOLsyDTEvLsgvf4bsysQ-81" value="NO" style="rhombus;whiteSpace=wrap;html=1;rounded=1;glass=0;strokeWidth=1;shadow=0;arcSize=0;" vertex="1" parent="WIyWlLk6GJQsqaUBKTNV-1">
          <mxGeometry x="-112" y="107" width="80" height="80" as="geometry" />
        </mxCell>
        <mxCell id="zOLsyDTEvLsgvf4bsysQ-86" value="" style="edgeStyle=orthogonalEdgeStyle;rounded=0;orthogonalLoop=1;jettySize=auto;html=1;" edge="1" parent="WIyWlLk6GJQsqaUBKTNV-1" source="zOLsyDTEvLsgvf4bsysQ-83" target="zOLsyDTEvLsgvf4bsysQ-85">
          <mxGeometry relative="1" as="geometry" />
        </mxCell>
        <mxCell id="zOLsyDTEvLsgvf4bsysQ-83" value="YES" style="rhombus;whiteSpace=wrap;html=1;rounded=1;glass=0;strokeWidth=1;shadow=0;arcSize=0;" vertex="1" parent="WIyWlLk6GJQsqaUBKTNV-1">
          <mxGeometry x="48" y="-53" width="80" height="80" as="geometry" />
        </mxCell>
        <mxCell id="zOLsyDTEvLsgvf4bsysQ-103" value="" style="edgeStyle=orthogonalEdgeStyle;rounded=0;orthogonalLoop=1;jettySize=auto;html=1;" edge="1" parent="WIyWlLk6GJQsqaUBKTNV-1" source="zOLsyDTEvLsgvf4bsysQ-85" target="zOLsyDTEvLsgvf4bsysQ-102">
          <mxGeometry relative="1" as="geometry" />
        </mxCell>
        <mxCell id="zOLsyDTEvLsgvf4bsysQ-85" value="Checking" style="whiteSpace=wrap;html=1;rounded=1;glass=0;strokeWidth=1;shadow=0;arcSize=0;" vertex="1" parent="WIyWlLk6GJQsqaUBKTNV-1">
          <mxGeometry x="188" y="-43" width="120" height="60" as="geometry" />
        </mxCell>
        <mxCell id="zOLsyDTEvLsgvf4bsysQ-91" value="" style="edgeStyle=orthogonalEdgeStyle;rounded=0;orthogonalLoop=1;jettySize=auto;html=1;" edge="1" parent="WIyWlLk6GJQsqaUBKTNV-1" source="zOLsyDTEvLsgvf4bsysQ-88" target="zOLsyDTEvLsgvf4bsysQ-90">
          <mxGeometry relative="1" as="geometry" />
        </mxCell>
        <mxCell id="zOLsyDTEvLsgvf4bsysQ-88" value="Checking" style="whiteSpace=wrap;html=1;" vertex="1" parent="WIyWlLk6GJQsqaUBKTNV-1">
          <mxGeometry x="8" y="117" width="120" height="60" as="geometry" />
        </mxCell>
        <mxCell id="zOLsyDTEvLsgvf4bsysQ-90" value="No service&amp;nbsp;&lt;div&gt;found&lt;/div&gt;" style="shape=trapezoid;perimeter=trapezoidPerimeter;whiteSpace=wrap;html=1;fixedSize=1;" vertex="1" parent="WIyWlLk6GJQsqaUBKTNV-1">
          <mxGeometry x="8" y="257" width="120" height="60" as="geometry" />
        </mxCell>
        <mxCell id="zOLsyDTEvLsgvf4bsysQ-119" value="" style="edgeStyle=orthogonalEdgeStyle;rounded=0;orthogonalLoop=1;jettySize=auto;html=1;" edge="1" parent="WIyWlLk6GJQsqaUBKTNV-1" source="zOLsyDTEvLsgvf4bsysQ-102" target="zOLsyDTEvLsgvf4bsysQ-118">
          <mxGeometry relative="1" as="geometry" />
        </mxCell>
        <mxCell id="zOLsyDTEvLsgvf4bsysQ-102" value="send&amp;nbsp; a&amp;nbsp;&lt;div&gt;message to&amp;nbsp;&lt;/div&gt;&lt;div&gt;mentor&lt;/div&gt;" style="rhombus;whiteSpace=wrap;html=1;rounded=1;glass=0;strokeWidth=1;shadow=0;arcSize=0;" vertex="1" parent="WIyWlLk6GJQsqaUBKTNV-1">
          <mxGeometry x="408" y="-53" width="96" height="89" as="geometry" />
        </mxCell>
        <mxCell id="zOLsyDTEvLsgvf4bsysQ-109" value="" style="edgeStyle=orthogonalEdgeStyle;rounded=0;orthogonalLoop=1;jettySize=auto;html=1;" edge="1" parent="WIyWlLk6GJQsqaUBKTNV-1" source="zOLsyDTEvLsgvf4bsysQ-118" target="zOLsyDTEvLsgvf4bsysQ-108">
          <mxGeometry relative="1" as="geometry">
            <mxPoint x="456" y="240.00000000000023" as="sourcePoint" />
          </mxGeometry>
        </mxCell>
        <mxCell id="zOLsyDTEvLsgvf4bsysQ-111" value="" style="edgeStyle=orthogonalEdgeStyle;rounded=0;orthogonalLoop=1;jettySize=auto;html=1;" edge="1" parent="WIyWlLk6GJQsqaUBKTNV-1" source="zOLsyDTEvLsgvf4bsysQ-108" target="zOLsyDTEvLsgvf4bsysQ-110">
          <mxGeometry relative="1" as="geometry" />
        </mxCell>
        <mxCell id="zOLsyDTEvLsgvf4bsysQ-113" value="" style="edgeStyle=orthogonalEdgeStyle;rounded=0;orthogonalLoop=1;jettySize=auto;html=1;" edge="1" parent="WIyWlLk6GJQsqaUBKTNV-1" source="zOLsyDTEvLsgvf4bsysQ-108" target="zOLsyDTEvLsgvf4bsysQ-112">
          <mxGeometry relative="1" as="geometry" />
        </mxCell>
        <mxCell id="zOLsyDTEvLsgvf4bsysQ-108" value="Has a response" style="shape=trapezoid;perimeter=trapezoidPerimeter;whiteSpace=wrap;html=1;fixedSize=1;rounded=1;glass=0;strokeWidth=1;shadow=0;arcSize=0;" vertex="1" parent="WIyWlLk6GJQsqaUBKTNV-1">
          <mxGeometry x="396" y="312" width="120" height="60" as="geometry" />
        </mxCell>
        <mxCell id="zOLsyDTEvLsgvf4bsysQ-123" value="" style="edgeStyle=orthogonalEdgeStyle;rounded=0;orthogonalLoop=1;jettySize=auto;html=1;" edge="1" parent="WIyWlLk6GJQsqaUBKTNV-1" source="zOLsyDTEvLsgvf4bsysQ-110" target="zOLsyDTEvLsgvf4bsysQ-122">
          <mxGeometry relative="1" as="geometry" />
        </mxCell>
        <mxCell id="zOLsyDTEvLsgvf4bsysQ-110" value="Yes" style="rhombus;whiteSpace=wrap;html=1;rounded=1;glass=0;strokeWidth=1;shadow=0;arcSize=0;" vertex="1" parent="WIyWlLk6GJQsqaUBKTNV-1">
          <mxGeometry x="616" y="302" width="80" height="80" as="geometry" />
        </mxCell>
        <mxCell id="zOLsyDTEvLsgvf4bsysQ-115" value="" style="edgeStyle=orthogonalEdgeStyle;rounded=0;orthogonalLoop=1;jettySize=auto;html=1;" edge="1" parent="WIyWlLk6GJQsqaUBKTNV-1" source="zOLsyDTEvLsgvf4bsysQ-112" target="zOLsyDTEvLsgvf4bsysQ-114">
          <mxGeometry relative="1" as="geometry" />
        </mxCell>
        <mxCell id="zOLsyDTEvLsgvf4bsysQ-112" value="No" style="rhombus;whiteSpace=wrap;html=1;rounded=1;glass=0;strokeWidth=1;shadow=0;arcSize=0;" vertex="1" parent="WIyWlLk6GJQsqaUBKTNV-1">
          <mxGeometry x="416" y="442" width="80" height="80" as="geometry" />
        </mxCell>
        <mxCell id="zOLsyDTEvLsgvf4bsysQ-114" value="Sorry mentor is&amp;nbsp;&lt;div&gt;not available&amp;nbsp;&lt;/div&gt;&lt;div&gt;&lt;br&gt;&lt;/div&gt;" style="shape=trapezoid;perimeter=trapezoidPerimeter;whiteSpace=wrap;html=1;fixedSize=1;rounded=1;glass=0;strokeWidth=1;shadow=0;arcSize=0;" vertex="1" parent="WIyWlLk6GJQsqaUBKTNV-1">
          <mxGeometry x="396" y="612" width="120" height="60" as="geometry" />
        </mxCell>
        <mxCell id="zOLsyDTEvLsgvf4bsysQ-118" value="wait for 6/12/24 hours" style="whiteSpace=wrap;html=1;rounded=1;glass=0;strokeWidth=1;shadow=0;arcSize=0;" vertex="1" parent="WIyWlLk6GJQsqaUBKTNV-1">
          <mxGeometry x="384" y="96" width="120" height="60" as="geometry" />
        </mxCell>
        <mxCell id="zOLsyDTEvLsgvf4bsysQ-122" value="Wait mentor&amp;nbsp;&lt;div&gt;create private message for help&lt;/div&gt;" style="shape=trapezoid;perimeter=trapezoidPerimeter;whiteSpace=wrap;html=1;fixedSize=1;rounded=1;glass=0;strokeWidth=1;shadow=0;arcSize=0;" vertex="1" parent="WIyWlLk6GJQsqaUBKTNV-1">
          <mxGeometry x="756" y="312" width="120" height="60" as="geometry" />
        </mxCell>
        <mxCell id="zOLsyDTEvLsgvf4bsysQ-124" value="&lt;b&gt;&lt;font style=&quot;font-size: 40px;&quot;&gt;Mentee&lt;/font&gt;&lt;/b&gt;" style="text;html=1;align=center;verticalAlign=middle;resizable=0;points=[];autosize=1;strokeColor=none;fillColor=none;" vertex="1" parent="WIyWlLk6GJQsqaUBKTNV-1">
          <mxGeometry x="-396" y="-389" width="168" height="60" as="geometry" />
        </mxCell>
        <mxCell id="zOLsyDTEvLsgvf4bsysQ-125" value="&lt;b&gt;&lt;font style=&quot;font-size: 40px;&quot;&gt;Mentor&lt;/font&gt;&lt;/b&gt;" style="text;html=1;align=center;verticalAlign=middle;resizable=0;points=[];autosize=1;strokeColor=none;fillColor=none;" vertex="1" parent="WIyWlLk6GJQsqaUBKTNV-1">
          <mxGeometry x="1356" y="-432" width="156" height="60" as="geometry" />
        </mxCell>
        <mxCell id="zOLsyDTEvLsgvf4bsysQ-139" value="" style="edgeStyle=orthogonalEdgeStyle;rounded=0;orthogonalLoop=1;jettySize=auto;html=1;" edge="1" parent="WIyWlLk6GJQsqaUBKTNV-1" source="zOLsyDTEvLsgvf4bsysQ-136" target="zOLsyDTEvLsgvf4bsysQ-138">
          <mxGeometry relative="1" as="geometry" />
        </mxCell>
        <mxCell id="zOLsyDTEvLsgvf4bsysQ-136" value="System" style="whiteSpace=wrap;html=1;rounded=1;glass=0;strokeWidth=1;shadow=0;arcSize=0;" vertex="1" parent="WIyWlLk6GJQsqaUBKTNV-1">
          <mxGeometry x="1374" y="-300" width="120" height="60" as="geometry" />
        </mxCell>
        <mxCell id="zOLsyDTEvLsgvf4bsysQ-141" value="" style="edgeStyle=orthogonalEdgeStyle;rounded=0;orthogonalLoop=1;jettySize=auto;html=1;" edge="1" parent="WIyWlLk6GJQsqaUBKTNV-1" source="zOLsyDTEvLsgvf4bsysQ-138" target="zOLsyDTEvLsgvf4bsysQ-140">
          <mxGeometry relative="1" as="geometry" />
        </mxCell>
        <mxCell id="zOLsyDTEvLsgvf4bsysQ-143" value="" style="edgeStyle=orthogonalEdgeStyle;rounded=0;orthogonalLoop=1;jettySize=auto;html=1;" edge="1" parent="WIyWlLk6GJQsqaUBKTNV-1" source="zOLsyDTEvLsgvf4bsysQ-138" target="zOLsyDTEvLsgvf4bsysQ-142">
          <mxGeometry relative="1" as="geometry" />
        </mxCell>
        <mxCell id="zOLsyDTEvLsgvf4bsysQ-149" value="" style="edgeStyle=orthogonalEdgeStyle;rounded=0;orthogonalLoop=1;jettySize=auto;html=1;" edge="1" parent="WIyWlLk6GJQsqaUBKTNV-1" source="zOLsyDTEvLsgvf4bsysQ-138" target="zOLsyDTEvLsgvf4bsysQ-148">
          <mxGeometry relative="1" as="geometry" />
        </mxCell>
        <mxCell id="zOLsyDTEvLsgvf4bsysQ-138" value="Mentee&lt;div&gt;ask for help&lt;/div&gt;" style="rhombus;whiteSpace=wrap;html=1;rounded=1;glass=0;strokeWidth=1;shadow=0;arcSize=0;" vertex="1" parent="WIyWlLk6GJQsqaUBKTNV-1">
          <mxGeometry x="1394" y="-170" width="106" height="86" as="geometry" />
        </mxCell>
        <mxCell id="zOLsyDTEvLsgvf4bsysQ-153" value="" style="edgeStyle=orthogonalEdgeStyle;rounded=0;orthogonalLoop=1;jettySize=auto;html=1;" edge="1" parent="WIyWlLk6GJQsqaUBKTNV-1" source="zOLsyDTEvLsgvf4bsysQ-140" target="zOLsyDTEvLsgvf4bsysQ-152">
          <mxGeometry relative="1" as="geometry" />
        </mxCell>
        <mxCell id="zOLsyDTEvLsgvf4bsysQ-140" value="Accept" style="whiteSpace=wrap;html=1;rounded=1;glass=0;strokeWidth=1;shadow=0;arcSize=0;" vertex="1" parent="WIyWlLk6GJQsqaUBKTNV-1">
          <mxGeometry x="1548" y="-156" width="119" height="37" as="geometry" />
        </mxCell>
        <mxCell id="zOLsyDTEvLsgvf4bsysQ-157" value="" style="edgeStyle=orthogonalEdgeStyle;rounded=0;orthogonalLoop=1;jettySize=auto;html=1;" edge="1" parent="WIyWlLk6GJQsqaUBKTNV-1" source="zOLsyDTEvLsgvf4bsysQ-142" target="zOLsyDTEvLsgvf4bsysQ-156">
          <mxGeometry relative="1" as="geometry" />
        </mxCell>
        <mxCell id="zOLsyDTEvLsgvf4bsysQ-142" value="Reject" style="whiteSpace=wrap;html=1;rounded=1;glass=0;strokeWidth=1;shadow=0;arcSize=0;" vertex="1" parent="WIyWlLk6GJQsqaUBKTNV-1">
          <mxGeometry x="1201" y="-144.5" width="120" height="37" as="geometry" />
        </mxCell>
        <mxCell id="zOLsyDTEvLsgvf4bsysQ-148" value="&lt;font style=&quot;font-size: 10px;&quot;&gt;If mentor no response&amp;nbsp; between 3 hours&amp;nbsp; system send request timeout&lt;/font&gt;" style="shape=trapezoid;perimeter=trapezoidPerimeter;whiteSpace=wrap;html=1;fixedSize=1;rounded=1;glass=0;strokeWidth=1;shadow=0;arcSize=0;" vertex="1" parent="WIyWlLk6GJQsqaUBKTNV-1">
          <mxGeometry x="1387" y="9" width="137" height="75" as="geometry" />
        </mxCell>
        <mxCell id="zOLsyDTEvLsgvf4bsysQ-159" value="" style="edgeStyle=orthogonalEdgeStyle;rounded=0;orthogonalLoop=1;jettySize=auto;html=1;" edge="1" parent="WIyWlLk6GJQsqaUBKTNV-1" source="zOLsyDTEvLsgvf4bsysQ-152" target="zOLsyDTEvLsgvf4bsysQ-158">
          <mxGeometry relative="1" as="geometry" />
        </mxCell>
        <mxCell id="zOLsyDTEvLsgvf4bsysQ-161" value="" style="edgeStyle=orthogonalEdgeStyle;rounded=0;orthogonalLoop=1;jettySize=auto;html=1;" edge="1" parent="WIyWlLk6GJQsqaUBKTNV-1" source="zOLsyDTEvLsgvf4bsysQ-152" target="zOLsyDTEvLsgvf4bsysQ-160">
          <mxGeometry relative="1" as="geometry" />
        </mxCell>
        <mxCell id="zOLsyDTEvLsgvf4bsysQ-152" value="What type help you wanr" style="rhombus;whiteSpace=wrap;html=1;rounded=1;glass=0;strokeWidth=1;shadow=0;arcSize=0;" vertex="1" parent="WIyWlLk6GJQsqaUBKTNV-1">
          <mxGeometry x="1766.5" y="-177.5" width="153.5" height="129.5" as="geometry" />
        </mxCell>
        <mxCell id="zOLsyDTEvLsgvf4bsysQ-156" value="return mentee sorry&amp;nbsp;&lt;div&gt;not available&lt;/div&gt;" style="shape=trapezoid;perimeter=trapezoidPerimeter;whiteSpace=wrap;html=1;fixedSize=1;rounded=1;glass=0;strokeWidth=1;shadow=0;arcSize=0;" vertex="1" parent="WIyWlLk6GJQsqaUBKTNV-1">
          <mxGeometry x="972" y="-168" width="149" height="72" as="geometry" />
        </mxCell>
        <mxCell id="zOLsyDTEvLsgvf4bsysQ-158" value="Paid" style="whiteSpace=wrap;html=1;rounded=1;glass=0;strokeWidth=1;shadow=0;arcSize=0;" vertex="1" parent="WIyWlLk6GJQsqaUBKTNV-1">
          <mxGeometry x="1783.25" width="120" height="60" as="geometry" />
        </mxCell>
        <mxCell id="zOLsyDTEvLsgvf4bsysQ-160" value="Volunteer" style="whiteSpace=wrap;html=1;rounded=1;glass=0;strokeWidth=1;shadow=0;arcSize=0;" vertex="1" parent="WIyWlLk6GJQsqaUBKTNV-1">
          <mxGeometry x="2016.75" y="-142.75" width="120" height="60" as="geometry" />
        </mxCell>
        <mxCell id="zOLsyDTEvLsgvf4bsysQ-162" value="&lt;font style=&quot;font-size: 40px;&quot;&gt;&lt;b&gt;Message Flowchart General&lt;/b&gt;&lt;/font&gt;" style="text;html=1;align=center;verticalAlign=middle;whiteSpace=wrap;rounded=0;" vertex="1" parent="WIyWlLk6GJQsqaUBKTNV-1">
          <mxGeometry x="444" y="-696" width="480" height="30" as="geometry" />
        </mxCell>
      </root>
    </mxGraphModel>
  </diagram>
</mxfile>
